<svg width="128" height="128" viewBox="0 0 128 128" xmlns="http://www.w3.org/2000/svg">
  <!-- Background gradient circle -->
  <defs>
    <radialGradient id="bgGradient" cx="50%" cy="50%" r="50%">
      <stop offset="0%" style="stop-color:#8B5CF6;stop-opacity:1" />
      <stop offset="50%" style="stop-color:#3B82F6;stop-opacity:1" />
      <stop offset="100%" style="stop-color:#6366F1;stop-opacity:1" />
    </radialGradient>
    
    <linearGradient id="heartGradient" x1="0%" y1="0%" x2="100%" y2="100%">
      <stop offset="0%" style="stop-color:#F472B6;stop-opacity:1" />
      <stop offset="100%" style="stop-color:#A855F7;stop-opacity:1" />
    </linearGradient>
    
    <linearGradient id="starGradient" x1="0%" y1="0%" x2="100%" y2="100%">
      <stop offset="0%" style="stop-color:#FCD34D;stop-opacity:1" />
      <stop offset="100%" style="stop-color:#F59E0B;stop-opacity:1" />
    </linearGradient>
    
    <!-- Glow effect -->
    <filter id="glow" x="-20%" y="-20%" width="140%" height="140%">
      <feGaussianBlur stdDeviation="3" result="coloredBlur"/>
      <feMerge> 
        <feMergeNode in="coloredBlur"/>
        <feMergeNode in="SourceGraphic"/>
      </feMerge>
    </filter>
  </defs>
  
  <!-- Main background -->
  <circle cx="64" cy="64" r="64" fill="url(#bgGradient)"/>
  
  <!-- Astrological circle (outer ring) -->
  <circle cx="64" cy="64" r="55" fill="none" stroke="rgba(255,255,255,0.2)" stroke-width="1"/>
  
  <!-- Zodiac symbols positioned around the circle -->
  <g transform="translate(64, 64)" fill="rgba(255,255,255,0.6)" font-family="serif" font-size="8" text-anchor="middle">
    <!-- 12 zodiac symbols positioned around the circle -->
    <text x="0" y="-48" transform="rotate(0)">♈</text>
    <text x="24" y="-42" transform="rotate(30)">♉</text>
    <text x="42" y="-24" transform="rotate(60)">♊</text>
    <text x="48" y="0" transform="rotate(90)">♋</text>
    <text x="42" y="24" transform="rotate(120)">♌</text>
    <text x="24" y="42" transform="rotate(150)">♍</text>
    <text x="0" y="48" transform="rotate(180)">♎</text>
    <text x="-24" y="42" transform="rotate(210)">♏</text>
    <text x="-42" y="24" transform="rotate(240)">♐</text>
    <text x="-48" y="0" transform="rotate(270)">♑</text>
    <text x="-42" y="-24" transform="rotate(300)">♒</text>
    <text x="-24" y="-42" transform="rotate(330)">♓</text>
  </g>
  
  <!-- Central heart symbol -->
  <g transform="translate(64, 64)">
    <!-- Heart shape -->
    <path d="M0,8 C-8,0 -16,0 -16,12 C-16,20 0,32 0,32 C0,32 16,20 16,12 C16,0 8,0 0,8 Z" 
          fill="url(#heartGradient)" 
          filter="url(#glow)"
          transform="scale(0.8)"/>
    
    <!-- Small star on top of heart -->
    <path d="M0,-12 L2,-8 L6,-8 L3,-5 L4,-1 L0,-3 L-4,-1 L-3,-5 L-6,-8 L-2,-8 Z" 
          fill="url(#starGradient)" 
          filter="url(#glow)"
          transform="scale(0.7)"/>
  </g>
  
  <!-- Decorative cosmic elements -->
  <g fill="rgba(255,255,255,0.7)">
    <!-- Small stars scattered around -->
    <circle cx="25" cy="30" r="1.5" opacity="0.8"/>
    <circle cx="103" cy="35" r="1" opacity="0.6"/>
    <circle cx="20" cy="95" r="1" opacity="0.7"/>
    <circle cx="108" cy="90" r="1.5" opacity="0.8"/>
    <circle cx="35" cy="108" r="1" opacity="0.6"/>
    <circle cx="95" cy="20" r="1" opacity="0.7"/>
    
    <!-- Constellation lines (subtle) -->
    <line x1="25" y1="30" x2="35" y2="25" stroke="rgba(255,255,255,0.3)" stroke-width="0.5"/>
    <line x1="103" y1="35" x2="108" y2="45" stroke="rgba(255,255,255,0.3)" stroke-width="0.5"/>
  </g>
  
  <!-- Inner decorative ring -->
  <circle cx="64" cy="64" r="35" fill="none" stroke="rgba(255,255,255,0.1)" stroke-width="0.5"/>
  
  <!-- Letter "K" integration (subtle) -->
  <g transform="translate(45, 45)" fill="rgba(255,255,255,0.15)" font-family="serif" font-size="12" font-weight="bold">
    <text>K</text>
  </g>
</svg>